PathFileType	4	(X/Y/Z)	C:\Users\Biomechanik\SynologyDrive\AlexP\Athlete_03\Athlete_3_22_07_06\sq_90_EMG\marker_experimental.trc																																																																																																																																																																															
DataRate	CameraRate	NumFrames	NumMarkers	Units	OrigDataRate	OrigDataStartFrame	OrigNumFrames																																																																																																																																																																											
200	200	4	59	mm	200	1038	1384																																																																																																																																																																											
Frame#	Time	BL			BR			GLAB			RFHD			LFHD			C7			T6			SPINMOL			SPINM2			SPINM3			T12			BELTOL			BELT2			BELT3			SACROL			SACR2			SACR3			LTHOL			LTH2			LTH3			LSHAOL			LSHA2			LSHA3			LHEE			LTOE			LM5			RTHOL			RTH2			RTH3			RSHAOL			RSHA2			RSHA3			RHEE			RTOE			RM5			STRN			XIPH			LACR			LUAOL			LUA2			LUA3			LLAOL			LLA2			LLA3			LWRU			RACR			RUAOL			RUA3			RLAOL			RLA2			RLA3			RWRU			RUA2			USERMO0			USERMO1			USERMO2			USERMO3			USERMO4			USERMO5		
		X1	Y1	Z1	X2	Y2	Z2	X3	Y3	Z3	X4	Y4	Z4	X5	Y5	Z5	X6	Y6	Z6	X7	Y7	Z7	X8	Y8	Z8	X9	Y9	Z9	X10	Y10	Z10	X11	Y11	Z11	X12	Y12	Z12	X13	Y13	Z13	X14	Y14	Z14	X15	Y15	Z15	X16	Y16	Z16	X17	Y17	Z17	X18	Y18	Z18	X19	Y19	Z19	X20	Y20	Z20	X21	Y21	Z21	X22	Y22	Z22	X23	Y23	Z23	X24	Y24	Z24	X25	Y25	Z25	X26	Y26	Z26	X27	Y27	Z27	X28	Y28	Z28	X29	Y29	Z29	X30	Y30	Z30	X31	Y31	Z31	X32	Y32	Z32	X33	Y33	Z33	X34	Y34	Z34	X35	Y35	Z35	X36	Y36	Z36	X37	Y37	Z37	X38	Y38	Z38	X39	Y39	Z39	X40	Y40	Z40	X41	Y41	Z41	X42	Y42	Z42	X43	Y43	Z43	X44	Y44	Z44	X45	Y45	Z45	X46	Y46	Z46	X47	Y47	Z47	X48	Y48	Z48	X49	Y49	Z49	X50	Y50	Z50	X51	Y51	Z51	X52	Y52	Z52	X53	Y53	Z53	X54	Y54	Z54	X55	Y55	Z55	X56	Y56	Z56	X57	Y57	Z57	X58	Y58	Z58	X59	Y59	Z59
																																																																																																																																																																																		
1039	5.19	114.8467636	987.7440796	-2302.461914	286.2880859	984.109436	-87.12872314	546.5809937	1122.625732	-1188.624634	486.1711426	1146.97168	-1112.533569	487.2459412	1141.51062	-1271.354004	303.4826355	1075.110474	-1182.072266	135.2102051	984.6328735	-1183.449341	114.8414688	970.7906494	-1187.507935	65.14637756	932.5753784	-1138.182739	71.94919586	926.0794067	-1186.915649	44.98936844	898.1174927	-1180.824951	3.772041321	903.6932373	-1179.120728	-38.67170715	862.8782959	-1125.190063	-46.23823547	866.8968506	-1174.632202	-108.5188065	799.0950317	-1198.775024	-93.46868134	803.9470215	-1150.204224	-143.1273499	760.7536621	-1157.634521	31.47039413	631.7077637	-1453.560547	39.09875488	554.2996216	-1472.771729	72.88288116	592.024353	-1476.843506	160.949707	318.7252197	-1580.670166	113.7590256	255.3575897	-1576.532227	162.7386322	256.7390442	-1585.197266	61.2115593	43.72578812	-1516.700684	264.1747742	46.41930771	-1558.952026	206.4007721	24.40716553	-1657.28186	64.24018097	599.5565186	-912.8117065	139.6136169	595.5188599	-886.7824097	104.5220032	559.7160645	-886.6661377	144.1865692	314.8439331	-802.5606079	169.46138	241.0420837	-788.0306396	124.9065475	256.1490784	-805.4105835	51.24765015	42.25344849	-876.1964111	242.5054474	42.40508652	-795.2923584	171.5647125	39.16659546	-711.2808838	360.7842102	909.7397461	-1204.963623	290.7914124	762.2637329	-1204.16394	247.1738739	1028.15332	-1373.060669	94.12197113	973.2697144	-1405.8125	51.13760376	943.7871704	-1365.231201	49.17053604	939.0256958	-1415.3927	30.67954636	906.513855	-1491.147827	80.34051514	912.5608521	-1532.637451	82.68449402	944.12323	-1493.881836	141.3641968	975.8568115	-1540.778076	289.8766785	1008.556824	-1006.607117	145.5457611	936.0789795	-953.6050415	83.34529114	928.3939209	-954.9223633	95.03554535	916.8492432	-873.8236694	148.9153748	949.2431641	-889.828186	144.4542542	938.2044678	-840.3009033	186.1702576	965.6453857	-825.1230469	nan	nan	nan	0.38656199	0.042215101	-0.975304008	0.104200996	0.200512007	-0.261878997	0.099289	0.043689601	-0.113237001	0.0352352	0.200283006	-0.838603973	0.333514005	2.855289936	-0.279909015	2.922480106	0	0
1040	5.195	114.9518127	988.2454224	-2302.444092	286.2861938	984.7095337	-87.10821533	546.5525513	1123.717773	-1188.656982	486.1285095	1148.040894	-1112.575439	487.1842651	1142.497925	-1271.381836	303.5082092	1075.861572	-1182.074219	135.3845367	985.1549072	-1183.430054	115.0328217	971.2896118	-1187.489014	65.39619446	932.9797974	-1138.180908	72.21272278	926.5095825	-1186.916138	45.29981613	898.5078735	-1180.832397	4.034851074	904.0043945	-1179.142334	-38.36600113	863.1317749	-1125.222046	-45.92550659	867.1380615	-1174.666748	-108.101532	799.2771606	-1198.834351	-93.07525635	804.1489868	-1150.258057	-142.6781616	760.8947754	-1157.704956	32.03178406	631.8132935	-1453.615723	39.6136322	554.3908691	-1472.812988	73.4186554	592.0897217	-1476.909912	161.195694	318.6946106	-1580.749268	113.9512482	255.3628387	-1576.571533	162.9282379	256.6989746	-1585.254272	61.2236557	43.73871994	-1516.687256	264.1810913	46.41130447	-1558.951294	206.4023285	24.40885162	-1657.282227	64.64147186	599.6517944	-912.7525635	139.9834442	595.5513916	-886.6484985	104.8677139	559.7728882	-886.586731	144.3025818	314.8310242	-802.4511108	169.5426025	241.0006714	-787.9544067	125.0042572	256.1381836	-805.3518677	51.26148605	42.27098083	-876.2039185	242.5063782	42.4037323	-795.2874756	171.5610352	39.15930176	-711.2748413	361.0657043	910.5971069	-1204.906372	291.2774353	763.022522	-1204.084229	247.2599487	1028.790771	-1373.038086	94.27379608	973.7255249	-1405.723511	51.35500717	944.1539307	-1365.148804	49.39532089	939.423584	-1415.315674	30.91875648	906.9043579	-1491.094971	80.5500412	913.0305176	-1532.611816	82.89624786	944.5838013	-1493.829468	141.500885	976.3956299	-1540.760254	289.9515991	1009.328491	-1006.567383	145.7448273	936.5465698	-953.5886841	83.51116943	928.7753906	-954.923584	95.24993134	917.2181396	-873.817627	149.066925	949.7189331	-889.8180542	144.6162872	938.6671143	-840.2901001	186.2820892	966.1964722	-825.1107788	nan	nan	nan	0.382555991	0.042577598	-0.976653993	0.103804998	0.198541	-0.257968992	0.101030998	0.043799698	-0.119012997	0.035191301	0.198544994	-0.834604025	0.330621988	2.856729984	-0.281255007	2.922549963	0	0
1041	5.2	115.0566788	988.7520752	-2302.428711	286.276886	985.3153687	-87.08885193	546.5265503	1124.816895	-1188.706543	486.0952148	1149.108154	-1112.625	487.1137085	1143.495972	-1271.418579	303.5393066	1076.613281	-1182.074097	135.5619507	985.6849365	-1183.410889	115.2276611	971.7979126	-1187.470581	65.6490097	933.3948975	-1138.178345	72.47810364	926.9503174	-1186.915894	45.61267853	898.9096069	-1180.838623	4.299690723	904.3282471	-1179.160522	-38.0588913	863.4000244	-1125.249878	-45.61196518	867.3942261	-1174.696777	-107.6857834	799.4777222	-1198.889282	-92.682724	804.3678589	-1150.307861	-142.2318726	761.0558472	-1157.770996	32.58550262	631.9307861	-1453.668579	40.11170578	554.4945679	-1472.85376	73.94116211	592.1659546	-1476.974487	161.427948	318.6677551	-1580.827759	114.1335678	255.3688202	-1576.609131	163.1086731	256.6616821	-1585.310059	61.23591232	43.7522049	-1516.673706	264.1876526	46.40320587	-1558.950928	206.4038849	24.4099102	-1657.282959	65.0371933	599.7553711	-912.6939697	140.3467255	595.5906982	-886.5153809	105.2060776	559.8373413	-886.5083008	144.4141388	314.8163147	-802.3434448	169.6196442	240.9607544	-787.8790894	125.0968628	256.1276245	-805.2926025	51.2740593	42.28765488	-876.2109985	242.5069275	42.40223312	-795.2819214	171.5573578	39.15209198	-711.2689209	361.3490906	911.4556274	-1204.85437	291.7589111	763.7841187	-1204.010498	247.348053	1029.425537	-1373.021606	94.42638397	974.1908569	-1405.634521	51.57277679	944.5335083	-1365.066406	49.61867905	939.8345947	-1415.238647	31.14731026	907.3150635	-1491.047241	80.75315094	913.5131226	-1532.588501	83.10441589	945.0563965	-1493.778931	141.6383972	976.9407959	-1540.744385	290.0328979	1010.098083	-1006.53009	145.9461517	937.0211792	-953.5745239	83.6893692	929.1594238	-954.9277344	95.47138977	917.5921631	-873.821228	149.2207031	950.1998291	-889.8118896	144.7788544	939.1343384	-840.2834473	186.3947906	966.7512207	-825.1011353	nan	nan	nan	0.377191991	0.043252502	-0.972159982	0.102858	0.197206005	-0.253003001	0.103193998	0.043709401	-0.125654995	0.035239302	0.196500003	-0.829235017	0.327683985	2.858289957	-0.283416003	2.922729969	0	0
1042	5.205	115.1617737	989.2642822	-2302.416016	286.2604065	985.9274902	-87.07048035	546.5031128	1125.921143	-1188.772461	486.071167	1150.170166	-1112.68103	487.0338135	1144.504883	-1271.463013	303.5756836	1077.365234	-1182.072632	135.7415924	986.2229004	-1183.392456	115.4248352	972.3153687	-1187.453247	65.90358734	933.8205566	-1138.176025	72.74421692	927.4013062	-1186.915894	45.92658997	899.3220215	-1180.843994	4.565396309	904.6641235	-1179.175293	-37.75123596	863.682373	-1125.273193	-45.29868698	867.6646729	-1174.72229	-107.2725449	799.6954956	-1198.93811	-92.29159546	804.6029053	-1150.352417	-141.7891083	761.2359619	-1157.830444	33.12717819	632.059021	-1453.718628	40.58998871	554.6094971	-1472.892822	74.44658661	592.2520142	-1477.037354	161.6442413	318.6445007	-1580.906128	114.3040161	255.3754272	-1576.645264	163.2779846	256.6272278	-1585.36499	61.24837875	43.76622391	-1516.660034	264.1944275	46.39511871	-1558.951172	206.4053497	24.41027832	-1657.28418	65.42915344	599.8670654	-912.6350098	140.7052307	595.6365967	-886.3826904	105.538681	559.9094849	-886.4300537	144.5227966	314.7996826	-802.2383423	169.6932983	240.9226227	-787.803833	125.1853333	256.1177063	-805.2324219	51.28548813	42.304245	-876.2175293	242.5071716	42.40071106	-795.2750854	171.5534973	39.14474487	-711.2628174	361.6331177	912.3145752	-1204.80835	292.234436	764.5480957	-1203.94458	247.4377747	1030.05835	-1373.01123	94.5790863	974.6676636	-1405.545166	51.7897644	944.9282837	-1364.983276	49.83916855	940.2614746	-1415.161255	31.36401367	907.7479858	-1491.003418	80.94863129	914.0102539	-1532.567139	83.3080368	945.5426636	-1493.730347	141.7761841	977.4933472	-1540.730225	290.119873	1010.86438	-1006.496338	146.1483917	937.505188	-953.5645752	83.88057709	929.5487061	-954.9359131	95.69667053	917.9749756	-873.8356934	149.3752289	950.6882324	-889.8106079	144.9398499	939.6091309	-840.2819214	186.5071564	967.3108521	-825.0944214	nan	nan	nan	0.370463997	0.044248	-0.961556017	0.101319999	0.196308002	-0.247012004	0.105686001	0.0434351	-0.132978007	0.035350401	0.194305003	-0.823023975	0.324822009	2.859940052	-0.286388993	2.923010111	0	0
